<svg width="335" height="107" viewBox="0 0 335 107" fill="none" xmlns="http://www.w3.org/2000/svg">
<path d="M26.3997 106.31C20.073 106.31 14.353 104.88 9.23965 102.02C3.17298 98.4667 0.139648 93.7 0.139648 87.72C0.139648 84.4267 1.30965 81.1767 3.64965 77.97C10.4096 68.61 24.1463 62.76 44.8597 60.42C46.6797 60.2467 48.6297 60.1167 50.7097 60.03C52.7897 59.8567 54.9997 59.77 57.3397 59.77C59.9397 59.77 63.0163 59.9 66.5697 60.16C70.123 60.3333 74.153 60.6367 78.6596 61.07C79.353 59.77 80.003 58.47 80.6097 57.17C81.303 55.87 81.953 54.6133 82.5597 53.4C82.473 51.4067 81.823 49.7167 80.6097 48.33C79.483 46.9433 77.923 46.2933 75.9297 46.38C76.4497 43.3467 78.2263 41.83 81.2597 41.83C84.2063 41.83 85.4197 43.78 84.8997 47.68C89.233 36.5867 91.4863 26.62 91.6597 17.78C89.493 17.3467 86.8063 16.8267 83.5997 16.22C80.393 15.6133 76.6663 14.92 72.4197 14.14C68.433 13.4467 64.8363 12.9267 61.6297 12.58C58.5097 12.1467 55.823 11.93 53.5697 11.93C40.5697 11.93 31.513 15.6567 26.3997 23.11C24.4063 26.0567 23.4096 29.09 23.4096 32.21C23.4096 36.8033 25.403 40.4867 29.3896 43.26C32.8563 45.5133 37.0597 46.64 41.9996 46.64C44.3396 46.64 46.6363 46.2933 48.8896 45.6C51.143 44.9067 53.2663 43.8667 55.2597 42.48C59.7663 39.2733 62.0197 35.3733 62.0197 30.78C62.0197 27.7467 60.5463 25.32 57.5996 23.5C55.173 21.68 52.3563 20.77 49.1496 20.77C43.083 20.77 39.5297 22.2867 38.4897 25.32L38.0996 27.14C37.9263 27.5733 37.6663 28.05 37.3197 28.57C37.233 28.4833 37.1896 28.31 37.1896 28.05C37.1896 25.19 38.533 22.9367 41.2197 21.29C42.3463 20.5967 43.5596 20.12 44.8597 19.86C46.2463 19.5133 47.6763 19.34 49.1496 19.34C52.963 19.34 56.1263 20.3367 58.6397 22.33C61.673 24.4967 63.1897 27.3133 63.1897 30.78C63.1897 35.98 60.893 40.2267 56.2997 43.52C51.8797 46.64 47.113 48.2 41.9996 48.2C36.193 48.2 31.253 46.64 27.1796 43.52C22.8463 40.14 20.6797 35.5467 20.6797 29.74C20.6797 26.36 21.5897 23.11 23.4096 19.99C28.3496 11.7567 37.4063 7.63999 50.5797 7.63999C52.833 7.63999 55.563 7.85666 58.7696 8.28999C61.9763 8.72333 65.6597 9.41666 69.8197 10.37L91.6597 15.57C91.573 10.8033 90.4463 6.64333 88.2796 3.09C88.0197 2.39666 87.8897 1.83333 87.8897 1.4C87.8897 0.706662 88.193 0.359994 88.7997 0.359994C89.6663 0.359994 90.533 1.18333 91.3997 2.82999C93.2197 5.77666 94.2163 10.1967 94.3897 16.09C97.423 16.6967 100.24 17.2167 102.84 17.65C105.526 18.0833 107.953 18.3867 110.12 18.56C113.066 14.4867 115.97 11.41 118.83 9.32999C122.47 6.64333 125.806 5.29999 128.84 5.29999C133.606 5.29999 135.99 7.16333 135.99 10.89C135.99 16.7833 129.663 19.9033 117.01 20.25C111.463 29.2633 108.69 41.1367 108.69 55.87C108.69 56.9967 108.69 58.1233 108.69 59.25C108.776 60.3767 108.863 61.5033 108.95 62.63C120.476 62.1967 127.843 59.0333 131.05 53.14C131.396 52.4467 131.743 51.5367 132.09 50.41C132.436 49.2833 132.783 47.8967 133.13 46.25C133.303 45.73 133.563 45.47 133.91 45.47C134.43 45.47 134.69 45.8167 134.69 46.51C134.69 47.8967 134.213 49.8033 133.26 52.23C130.14 60.7233 122.123 65.1433 109.21 65.49C110.163 72.77 112.026 78.9667 114.8 84.08C118.786 91.0133 123.9 94.48 130.14 94.48C133.52 94.48 136.163 93.0067 138.07 90.06C138.243 89.8867 139.413 87.0267 141.58 81.48C141.753 81.22 141.926 81.09 142.1 81.09C142.273 81.09 142.36 81.35 142.36 81.87C142.36 85.4233 141.103 88.7167 138.59 91.75C135.903 94.6967 132.826 96.17 129.36 96.17H128.58C128.32 96.0833 128.06 96.04 127.8 96.04C125.98 96.04 124.94 97.1233 124.68 99.29C124.333 101.63 123.943 102.8 123.51 102.8C123.076 102.8 122.643 102.627 122.21 102.28C111.116 94.6533 104.703 82.39 102.97 65.49C100.63 65.4033 97.943 65.23 94.9096 64.97C91.963 64.71 88.6697 64.4067 85.0297 64.06C72.2897 85.2067 58.3363 98.2933 43.1696 103.32C37.363 105.313 31.773 106.31 26.3997 106.31ZM113.89 18.82C114.93 17.26 115.926 16.0033 116.88 15.05C117.226 14.7033 117.746 14.4 118.44 14.14C119.133 13.7933 120.043 13.4033 121.17 12.97C122.383 12.5367 123.336 12.19 124.03 11.93C124.81 11.67 125.416 11.54 125.85 11.54C125.936 11.54 125.98 11.5833 125.98 11.67C125.98 11.67 125.936 11.67 125.85 11.67C125.85 11.67 125.806 11.7133 125.72 11.8C124.333 12.58 122.99 13.5333 121.69 14.66C120.476 15.7867 119.35 17.13 118.31 18.69C126.976 18.0833 131.31 15.7433 131.31 11.67C131.31 9.07 129.706 7.77 126.5 7.77C124.506 7.77 122.253 8.63667 119.74 10.37C117.313 12.1033 114.67 14.8767 111.81 18.69C112.156 18.69 112.503 18.69 112.85 18.69C113.196 18.69 113.543 18.7333 113.89 18.82ZM84.8997 61.46C85.7663 60.16 86.8497 58.34 88.1497 56C89.4497 53.66 91.053 50.8 92.9597 47.42C94.5197 44.3 96.643 40.4867 99.3297 35.98C102.016 31.4733 105.223 26.1867 108.95 20.12C106.783 19.9467 104.486 19.73 102.06 19.47C99.7197 19.1233 97.163 18.7333 94.3897 18.3C94.303 21.7667 93.8696 25.5367 93.0896 29.61C92.3096 33.5967 91.0963 37.7567 89.4497 42.09C88.4097 45.1233 87.1097 48.2433 85.5497 51.45C84.0763 54.57 82.4297 57.7767 80.6097 61.07L84.8997 61.46ZM102.71 62.63C102.623 61.85 102.58 61.0267 102.58 60.16C102.58 59.2933 102.58 58.4267 102.58 57.56C102.58 42.8267 105.96 30.39 112.72 20.25C112.373 20.25 112.026 20.25 111.68 20.25C111.333 20.25 110.986 20.2067 110.64 20.12C109.34 22.0267 107.303 25.32 104.53 30C101.843 34.5933 98.3763 40.66 94.1297 48.2C92.5697 51.1467 91.1397 53.7467 89.8397 56C88.6263 58.1667 87.543 60.03 86.5897 61.59C89.883 61.9367 92.873 62.1967 95.5597 62.37C98.2463 62.4567 100.63 62.5433 102.71 62.63ZM27.9596 104.36C32.6396 104.36 37.623 103.58 42.9096 102.02C57.4696 97.34 70.9897 84.6433 83.4696 63.93L79.3096 63.41C67.263 83.8633 54.8697 94.9567 42.1297 96.69C44.123 95.39 45.1197 92.6167 45.1197 88.37V88.11C46.4197 85.51 47.8496 84.21 49.4097 84.21C49.6696 84.21 49.7996 84.2967 49.7996 84.47C49.7996 88.9767 49.453 91.7067 48.7597 92.66L45.5097 95C56.6897 91.62 67.3497 81.0033 77.4896 63.15C67.6097 62.11 59.853 61.59 54.2197 61.59C44.0796 61.59 35.3696 62.9333 28.0896 65.62C22.4563 67.7 17.7763 70.5167 14.0496 74.07C9.45632 78.4033 7.15965 83.17 7.15965 88.37C7.15965 93.57 9.41298 97.6867 13.9197 100.72C17.993 103.147 22.673 104.36 27.9596 104.36ZM161.891 95.65C158.771 95.65 157.211 93.7 157.211 89.8C157.211 87.72 157.991 85.12 159.551 82C161.024 78.5333 161.761 76.02 161.761 74.46C161.761 73.3333 161.328 72.4667 160.461 71.86C159.681 71.2533 158.684 70.69 157.471 70.17C156.604 69.7367 155.694 69.2167 154.741 68.61C153.788 68.0033 153.008 67.3967 152.401 66.79C151.794 68.09 150.451 70.3433 148.371 73.55C146.291 76.7567 144.038 80.05 141.611 83.43C141.264 83.8633 140.918 84.08 140.571 84.08C140.224 84.08 140.051 83.7767 140.051 83.17C140.051 82.5633 140.398 81.9133 141.091 81.22C141.784 80.3533 142.781 78.9667 144.081 77.06C145.381 75.0667 146.681 72.9433 147.981 70.69C149.281 68.35 150.278 66.3133 150.971 64.58C150.538 63.1067 150.191 61.85 149.931 60.81C149.671 59.77 149.541 58.73 149.541 57.69C149.541 55.87 150.061 54.2233 151.101 52.75C152.141 51.2767 153.484 50.54 155.131 50.54C157.471 50.54 158.641 51.9267 158.641 54.7C158.641 57.7333 157.471 60.8967 155.131 64.19C155.478 64.71 155.911 65.1433 156.431 65.49C156.951 65.8367 157.774 66.2267 158.901 66.66C159.508 66.92 160.071 67.0933 160.591 67.18C161.198 67.2667 161.718 67.31 162.151 67.31C162.844 67.31 163.408 67.2667 163.841 67.18C164.361 67.0933 164.794 67.05 165.141 67.05C165.661 67.05 166.268 67.3533 166.961 67.96C167.741 68.48 168.131 69.3033 168.131 70.43C168.131 71.0367 168.088 71.4267 168.001 71.6C167.914 71.7733 167.654 72.51 167.221 73.81C166.874 75.0233 166.224 76.7567 165.271 79.01C163.538 83.5167 162.671 86.68 162.671 88.5C162.671 90.9267 163.494 92.14 165.141 92.14C166.961 92.14 169.128 91.0567 171.641 88.89C174.241 86.7233 176.624 84.1667 178.791 81.22C179.051 80.96 179.268 80.83 179.441 80.83C179.788 80.83 179.961 81.1333 179.961 81.74C179.961 82.3467 179.744 82.91 179.311 83.43C175.844 88.0233 172.724 91.23 169.951 93.05C167.178 94.7833 164.491 95.65 161.891 95.65ZM188.809 95.91C185.603 95.91 183.089 94.8267 181.269 92.66C179.449 90.4067 178.539 87.6333 178.539 84.34C178.539 80.2667 180.533 75.76 184.519 70.82C188.593 65.9667 192.666 63.54 196.739 63.54C199.859 63.54 201.419 64.71 201.419 67.05C201.419 67.9167 200.813 69.4767 199.599 71.73C198.473 74.07 197.649 75.24 197.129 75.24C196.869 75.24 196.696 74.9367 196.609 74.33C196.609 73.9833 196.696 73.42 196.869 72.64C197.129 71.86 197.259 71.2967 197.259 70.95C197.259 68.7833 195.959 67.7 193.359 67.7C190.499 67.7 188.029 69.52 185.949 73.16C184.129 76.3667 183.219 79.5733 183.219 82.78C183.219 89.1933 185.906 92.4 191.279 92.4C195.613 92.4 199.253 91.36 202.199 89.28C205.146 87.1133 208.049 84.3833 210.909 81.09C211.343 80.6567 211.733 80.44 212.079 80.44C212.426 80.44 212.599 80.6133 212.599 80.96C212.599 81.3067 212.426 81.6967 212.079 82.13C211.819 82.5633 211.559 82.9967 211.299 83.43C210.173 84.9033 208.786 86.4633 207.139 88.11C205.579 89.7567 203.803 91.1867 201.809 92.4C199.383 93.7867 197.086 94.6967 194.919 95.13C192.753 95.65 190.716 95.91 188.809 95.91ZM212.218 95.78C208.665 95.78 206.888 94.0467 206.888 90.58C206.888 87.2867 209.272 82.6933 214.038 76.8C218.372 71.34 222.142 67.57 225.348 65.49C228.555 63.41 231.545 62.37 234.318 62.37C237.612 62.37 239.258 63.3233 239.258 65.23C239.258 65.6633 238.825 66.3133 237.958 67.18C237.092 67.96 236.615 68.4367 236.528 68.61C234.882 71.2967 234.058 76.7567 234.058 84.99C234.058 89.7567 235.098 92.14 237.178 92.14C239.085 92.14 241.295 91.0133 243.808 88.76C246.322 86.5067 248.662 83.9933 250.828 81.22C251.088 80.96 251.305 80.83 251.478 80.83C251.825 80.83 251.998 81.0467 251.998 81.48C251.998 81.6533 251.912 81.9567 251.738 82.39C251.652 82.8233 251.522 83.17 251.348 83.43C247.795 88.1967 244.718 91.4033 242.118 93.05C239.605 94.6967 237.135 95.52 234.708 95.52C230.808 95.52 228.902 91.36 228.988 83.04C227.342 85.9867 224.958 88.76 221.838 91.36C218.198 94.3067 214.992 95.78 212.218 95.78ZM215.728 92.27C217.202 92.27 218.762 91.6633 220.408 90.45C225.522 86.3767 228.858 78.75 230.418 67.57C230.158 67.57 229.985 67.5267 229.898 67.44C228.165 67.44 225.868 68.48 223.008 70.56C220.582 72.2067 218.632 73.9833 217.158 75.89C213.692 80.3967 211.958 84.2967 211.958 87.59C211.958 90.71 213.215 92.27 215.728 92.27ZM250.259 96.17C249.652 96.17 249.002 95.78 248.309 95C247.702 94.22 247.399 93.5267 247.399 92.92V92.53L248.569 90.32C249.262 88.3267 249.955 85.9433 250.649 83.17C251.342 80.31 251.992 77.06 252.599 73.42C252.685 72.5533 252.815 71.6433 252.989 70.69C253.162 69.65 253.335 68.48 253.509 67.18C253.942 65.4467 255.285 64.58 257.539 64.58C258.232 64.58 258.579 64.84 258.579 65.36C258.579 65.5333 258.492 66.14 258.319 67.18C258.145 68.22 257.885 69.65 257.539 71.47C257.192 73.4633 256.759 75.63 256.239 77.97C255.805 80.31 255.285 82.8233 254.679 85.51L260.789 75.24C263.822 70.1267 266.379 67.57 268.459 67.57C269.759 67.57 270.452 68.35 270.539 69.91C270.799 73.55 270.972 77.1467 271.059 80.7C271.232 84.2533 271.709 87.2 272.489 89.54C273.355 91.88 274.872 93.05 277.039 93.05C278.512 93.05 279.942 92.7467 281.329 92.14C282.802 91.5333 284.449 90.4067 286.269 88.76C288.089 87.0267 290.255 84.5133 292.769 81.22C292.855 81.0467 293.029 80.83 293.289 80.57C293.549 80.31 293.852 80.18 294.199 80.18C294.545 80.18 294.719 80.3533 294.719 80.7C294.719 81.0467 294.502 81.5233 294.069 82.13C293.722 82.7367 293.462 83.17 293.289 83.43C290.949 86.8967 288.305 89.8 285.359 92.14C282.412 94.48 279.639 95.65 277.039 95.65C273.225 95.65 270.409 93.7433 268.589 89.93C266.855 86.03 265.642 80.5267 264.949 73.42C263.562 74.8933 261.915 77.1033 260.009 80.05C258.189 82.9967 256.065 86.7667 253.639 91.36C253.465 91.7933 253.205 92.3133 252.859 92.92C252.512 93.44 252.122 94.1333 251.689 95C251.342 95.78 250.865 96.17 250.259 96.17ZM294.23 95.78C290.677 95.78 288.9 94.0467 288.9 90.58C288.9 87.2867 291.283 82.6933 296.05 76.8C300.383 71.34 304.153 67.57 307.36 65.49C310.567 63.41 313.557 62.37 316.33 62.37C319.623 62.37 321.27 63.3233 321.27 65.23C321.27 65.6633 320.837 66.3133 319.97 67.18C319.103 67.96 318.627 68.4367 318.54 68.61C316.893 71.2967 316.07 76.7567 316.07 84.99C316.07 89.7567 317.11 92.14 319.19 92.14C321.097 92.14 323.307 91.0133 325.82 88.76C328.333 86.5067 330.673 83.9933 332.84 81.22C333.1 80.96 333.317 80.83 333.49 80.83C333.837 80.83 334.01 81.0467 334.01 81.48C334.01 81.6533 333.923 81.9567 333.75 82.39C333.663 82.8233 333.533 83.17 333.36 83.43C329.807 88.1967 326.73 91.4033 324.13 93.05C321.617 94.6967 319.147 95.52 316.72 95.52C312.82 95.52 310.913 91.36 311 83.04C309.353 85.9867 306.97 88.76 303.85 91.36C300.21 94.3067 297.003 95.78 294.23 95.78ZM297.74 92.27C299.213 92.27 300.773 91.6633 302.42 90.45C307.533 86.3767 310.87 78.75 312.43 67.57C312.17 67.57 311.997 67.5267 311.91 67.44C310.177 67.44 307.88 68.48 305.02 70.56C302.593 72.2067 300.643 73.9833 299.17 75.89C295.703 80.3967 293.97 84.2967 293.97 87.59C293.97 90.71 295.227 92.27 297.74 92.27Z" fill="black"/>
</svg>
