<?xml version="1.0" encoding="UTF-8"?>
<svg version="1.1" xmlns="http://www.w3.org/2000/svg" width="256" height="256">
<path d="M0 0 C1.32 0 2.64 0 4 0 C4.30292969 0.97839844 4.60585937 1.95679687 4.91796875 2.96484375 C9.83328023 18.50683631 16.54572922 30.9263777 31.1171875 39.53125 C44.92070201 46.5639349 59.2586757 47.58086653 74 43 C87.95337465 37.25181631 98.30270451 28.0386444 104.25 14.0625 C105.23687093 11.39214337 106.14261338 8.71433955 107 6 C107.4125 4.783125 107.825 3.56625 108.25 2.3125 C108.62125 1.1678125 108.62125 1.1678125 109 0 C110.32 0 111.64 0 113 0 C113 2.64 113 5.28 113 8 C118.21506033 7.95589801 123.42890399 7.88612065 128.64331055 7.79248047 C130.41730061 7.76424721 132.19141701 7.74304437 133.96557617 7.72900391 C136.51547032 7.70760619 139.06384166 7.66097565 141.61328125 7.609375 C142.40712723 7.60814636 143.20097321 7.60691772 144.01887512 7.60565186 C148.46261498 7.55079179 148.46261498 7.55079179 151.9074707 5.00878906 C152.26800537 4.34588867 152.62854004 3.68298828 153 3 C155.65517417 1.93348653 158.15687559 1.78427655 161 2 C164 3.4375 164 3.4375 166 6 C166.80568909 9.78828812 166.47958427 12.89977725 164.9375 16.4375 C162.05717808 18.76034026 159.64426778 18.87213096 156 19 C152.60191974 17.89791992 152.05268083 17.07902124 150 14 C147.16975238 13.66228483 144.54756033 13.51096665 141.7109375 13.48828125 C140.89251373 13.47033005 140.07408997 13.45237885 139.23086548 13.43388367 C136.61229636 13.37962486 133.99391106 13.34583596 131.375 13.3125 C129.60153683 13.27934057 127.82809796 13.24485221 126.0546875 13.20898438 C121.70325736 13.12388981 117.35188321 13.0571536 113 13 C112.94013916 13.75128174 112.88027832 14.50256348 112.81860352 15.27661133 C112.69376587 16.75810669 112.69376587 16.75810669 112.56640625 18.26953125 C112.48592041 19.24768799 112.40543457 20.22584473 112.32250977 21.23364258 C111.95930785 24.34904066 111.17758818 27.09528248 110 30 C110.76570312 30.22429687 111.53140625 30.44859375 112.3203125 30.6796875 C117.34465216 32.48247604 122.07329444 34.80222373 126.875 37.125 C127.84953125 37.59292969 128.8240625 38.06085938 129.828125 38.54296875 C132.22029499 39.69214845 134.61084316 40.84457243 137 42 C137 43.32 137 44.64 137 46 C132.82770165 45.44030144 129.41485726 44.48690425 125.6015625 42.71484375 C124.62832031 42.26689453 123.65507812 41.81894531 122.65234375 41.35742188 C121.65332031 40.88884766 120.65429688 40.42027344 119.625 39.9375 C118.60277344 39.46505859 117.58054688 38.99261719 116.52734375 38.50585938 C114.01515329 37.34367781 111.50625747 36.17490756 109 35 C105.28919117 39.42442592 102.15422267 44.17403931 99 49 C102.66299079 52.68767402 106.3292268 56.37207881 109.99853516 60.0534668 C111.24683371 61.30680012 112.49423407 62.56102868 113.74072266 63.81616211 C115.53053264 65.61807502 117.32352745 67.41676427 119.1171875 69.21484375 C119.67558319 69.77840073 120.23397888 70.3419577 120.80929565 70.92259216 C123.63256352 73.81954874 123.63256352 73.81954874 127 76 C127 75.34 127 74.68 127 74 C128.875 74.1875 128.875 74.1875 131 75 C131.68132451 76.66072849 132.34742127 78.327767 133 80 C135.01735205 81.34410262 135.01735205 81.34410262 137 82 C136.67 83.65 136.34 85.3 136 87 C135.401875 87.061875 134.80375 87.12375 134.1875 87.1875 C131.12856542 88.3236757 130.44958901 90.17330142 129 93 C127.125 92.8125 127.125 92.8125 125 92 C124.31867549 90.33927151 123.65257873 88.672233 123 87 C120.98264795 85.65589738 120.98264795 85.65589738 119 85 C119 83.68 119 82.36 119 81 C119.99 81 120.98 81 122 81 C116.51548048 74.49539895 110.60420805 68.48516218 104.5625 62.5 C103.64017578 61.5821875 102.71785156 60.664375 101.76757812 59.71875 C99.51400101 57.47684945 97.25810925 55.237334 95 53 C94.25234375 53.49371094 93.5046875 53.98742187 92.734375 54.49609375 C91.74953125 55.13675781 90.7646875 55.77742188 89.75 56.4375 C88.77546875 57.07558594 87.8009375 57.71367187 86.796875 58.37109375 C84.41618385 59.7576136 82.68219693 60.546581 80 61 C80.2673999 61.76666992 80.5347998 62.53333984 80.81030273 63.32324219 C82.02117036 66.7982033 83.22936402 70.27408829 84.4375 73.75 C84.85837891 74.9565625 85.27925781 76.163125 85.71289062 77.40625 C86.11572266 78.56640625 86.51855469 79.7265625 86.93359375 80.921875 C87.30540771 81.99018555 87.67722168 83.05849609 88.06030273 84.15917969 C88.81237696 86.43279249 89.46616074 88.66783584 90 91 C87.525 91.495 87.525 91.495 85 92 C81.7 83.09 78.4 74.18 75 65 C70.9595774 64.83830958 70.9595774 64.83830958 67 66 C64.03 66 61.06 66 58 66 C58 79.2 58 92.4 58 106 C59.98 106.495 59.98 106.495 62 107 C64.34853162 109.83443472 65.01303309 111.36137878 64.9375 115.0625 C63.83287356 118.52366286 63.00342896 119.94502229 60 122 C56.08548544 122.55921637 53.9617771 122.63274809 50.625 120.4375 C48.44773715 117.17160572 48 114.92016134 48 111 C49.8125 108.0625 49.8125 108.0625 52 106 C52.66 106 53.32 106 54 106 C54 92.8 54 79.6 54 66 C51.36 66 48.72 66 46 66 C42.8125 65.34375 42.8125 65.34375 40 64.5 C39.05125 64.2215625 38.1025 63.943125 37.125 63.65625 C36.42375 63.4396875 35.7225 63.223125 35 63 C34.83781982 63.53294678 34.67563965 64.06589355 34.50854492 64.61499023 C32.58207571 70.68885649 30.09703413 76.33799523 27.3125 82.0625 C26.89677734 82.92810547 26.48105469 83.79371094 26.05273438 84.68554688 C25.03989913 86.79270985 24.0222841 88.8974094 23 91 C21.68 91 20.36 91 19 91 C19.40117757 83.83023675 22.51583561 77.9715256 25.5625 71.5625 C26.08263672 70.44939453 26.60277344 69.33628906 27.13867188 68.18945312 C28.41757546 65.45565005 29.70485465 62.72613621 31 60 C30.21665283 59.69658691 29.43330566 59.39317383 28.6262207 59.08056641 C24.94891329 57.56752721 22.18331883 55.37188462 19 53 C14.99482604 54.60373148 12.3228902 57.42113986 9.359375 60.4453125 C8.83232971 60.97518768 8.30528442 61.50506287 7.76226807 62.05099487 C6.08674325 63.73767825 4.41832278 65.43119564 2.75 67.125 C1.61244149 68.27259388 0.47442564 69.41973461 -0.6640625 70.56640625 C-3.44803465 73.37238137 -6.2256576 76.18450464 -9 79 C-8.01 79.99 -7.02 80.98 -6 82 C-6.495 83.485 -6.495 83.485 -7 85 C-7.78375 85.28875 -8.5675 85.5775 -9.375 85.875 C-12.6569889 87.28156667 -13.43421998 88.86843996 -15 92 C-16.32 91.67 -17.64 91.34 -19 91 C-19.061875 90.236875 -19.12375 89.47375 -19.1875 88.6875 C-19.76935262 85.76948191 -19.76935262 85.76948191 -22.5625 84.1875 C-23.366875 83.795625 -24.17125 83.40375 -25 83 C-24.8125 81.125 -24.8125 81.125 -24 79 C-22.33927151 78.31867549 -20.672233 77.65257873 -19 77 C-17.65589738 74.98264795 -17.65589738 74.98264795 -17 73 C-15.68 73 -14.36 73 -13 73 C-12.67 73.66 -12.34 74.32 -12 75 C-3.42 66.42 5.16 57.84 14 49 C12.02 46.03 10.04 43.06 8 40 C5 35.3 5 35.3 5 33 C4.20827393 33.30292969 3.41654785 33.60585937 2.60083008 33.91796875 C-0.35064836 35.0427535 -3.30481794 36.16006684 -6.26098633 37.27246094 C-7.53749771 37.75452961 -8.81290914 38.23952181 -10.0871582 38.72753906 C-11.92364159 39.43029335 -13.76452019 40.12152735 -15.60546875 40.8125 C-16.71043701 41.23144531 -17.81540527 41.65039062 -18.95385742 42.08203125 C-21.83830131 42.95127137 -24.01440017 43.19434336 -27 43 C-27 41.68 -27 40.36 -27 39 C-12.645 33.555 -12.645 33.555 2 28 C1.34 25.36 0.68 22.72 0 20 C-0.07288109 17.66780516 -0.09713794 15.3313105 0 13 C-5.62394866 13.04413925 -11.24677316 13.11395789 -16.87011719 13.20751953 C-18.78278656 13.23573286 -20.6955726 13.25694561 -22.60839844 13.27099609 C-25.35933173 13.29242081 -28.10886175 13.3390674 -30.859375 13.390625 C-31.71368103 13.39185364 -32.56798706 13.39308228 -33.44818115 13.39434814 C-38.32990365 13.45971553 -38.32990365 13.45971553 -42.38769531 15.97949219 C-42.91975586 16.64625977 -43.45181641 17.31302734 -44 18 C-47.68451718 19.17590974 -49.28254275 19.33481338 -52.8125 17.6875 C-55 16 -55 16 -56 14 C-56.68878924 6.88251121 -56.68878924 6.88251121 -54 3.4375 C-50.52740916 1.77355022 -48.59823774 1.78543343 -44.8671875 2.25 C-43 3 -43 3 -41.93481445 5.02246094 C-39.99800528 7.41714234 -39.99800528 7.41714234 -36.0793457 7.45410156 C-34.4446874 7.45346887 -32.80994335 7.43090409 -31.17578125 7.390625 C-30.31438034 7.38496521 -29.45297943 7.37930542 -28.56547546 7.37347412 C-25.81391852 7.3510813 -23.06366337 7.3008808 -20.3125 7.25 C-18.44728443 7.2299387 -16.58204845 7.21168728 -14.71679688 7.1953125 C-10.14402958 7.15120713 -5.5722355 7.08216057 -1 7 C-0.67 4.69 -0.34 2.38 0 0 Z " fill="#e0aaff" transform="translate(73,117)"/>
<path d="M0 0 C4.18734506 2.93037039 7.40149625 5.94595838 9.68359375 10.609375 C9.87511078 14.34395717 8.25467306 16.37099829 5.99609375 19.171875 C-0.07105309 25.79972973 -6.95983717 29.11702147 -15.84375 29.93359375 C-28.1555602 30.29607344 -36.5277321 28.00159785 -45.5390625 19.51171875 C-47.7230127 17.17417206 -49.20284685 15.4227772 -49.65234375 12.203125 C-48.99438794 7.12309413 -45.00831194 3.88579291 -41.31640625 0.609375 C-28.39647197 -7.56682222 -13.21878295 -7.93572804 0 0 Z M-37.81640625 6.359375 C-38.61046875 6.86984375 -39.40453125 7.3803125 -40.22265625 7.90625 C-42.40224553 9.67919949 -43.28397784 11.02830397 -44.31640625 13.609375 C-39.77059414 18.66659097 -35.64979905 22.03307962 -29.31640625 24.609375 C-28.65640625 24.279375 -27.99640625 23.949375 -27.31640625 23.609375 C-28.14140625 22.84625 -28.96640625 22.083125 -29.81640625 21.296875 C-33.04002415 17.49045613 -32.76270397 13.90450004 -32.58984375 9.09765625 C-32.31640625 6.609375 -32.31640625 6.609375 -31.31640625 3.609375 C-34.12070857 3.609375 -35.48481995 4.83021775 -37.81640625 6.359375 Z M-8.31640625 3.609375 C-8.15785156 4.18042969 -7.99929687 4.75148438 -7.8359375 5.33984375 C-6.59033498 10.78116 -6.4868847 15.75270679 -9.31640625 20.671875 C-9.97640625 21.64125 -10.63640625 22.610625 -11.31640625 23.609375 C-5.73342418 22.95255358 -2.13327761 20.10014124 2.12109375 16.609375 C3.92488823 14.77599035 3.92488823 14.77599035 3.48828125 12.68359375 C2.5216783 10.19201041 1.4154143 9.12474587 -0.62890625 7.421875 C-1.22316406 6.91269531 -1.81742188 6.40351562 -2.4296875 5.87890625 C-4.40732409 4.5481984 -5.987407 4.03610113 -8.31640625 3.609375 Z M-27.31640625 5.609375 C-27.64640625 6.929375 -27.97640625 8.249375 -28.31640625 9.609375 C-26.33640625 10.599375 -26.33640625 10.599375 -24.31640625 11.609375 C-23.65640625 10.289375 -22.99640625 8.969375 -22.31640625 7.609375 C-22.97640625 6.949375 -23.63640625 6.289375 -24.31640625 5.609375 C-25.30640625 5.609375 -26.29640625 5.609375 -27.31640625 5.609375 Z " fill="#e0aaff" transform="translate(150.31640625,115.390625)"/>
<path d="M0 0 C0.99 0.33 1.98 0.66 3 1 C3.061875 1.94875 3.12375 2.8975 3.1875 3.875 C3.455625 4.90625 3.72375 5.9375 4 7 C6.44288628 8.31068333 6.44288628 8.31068333 9 9 C9.33 9.66 9.66 10.32 10 11 C9.01 11.99 8.02 12.98 7 14 C7.81267334 14.80219971 8.62534668 15.60439941 9.46264648 16.4309082 C12.47372371 19.40581107 15.47819822 22.38730697 18.48071289 25.37084961 C19.78165129 26.66172461 21.08437829 27.95079964 22.38891602 29.23803711 C24.26270045 31.0875885 26.12997726 32.94349751 27.99609375 34.80078125 C28.87423988 35.66344353 28.87423988 35.66344353 29.77012634 36.54353333 C33.88612829 40.65838488 33.88612829 40.65838488 35 44 C34.505 44.99 34.505 44.99 34 46 C29.342286 45.13833169 27.01852734 42.29488634 23.87890625 38.9609375 C22.68465871 37.72876536 21.48998419 36.49700693 20.29492188 35.265625 C18.42164996 33.31775703 16.5534699 31.36548519 14.69311523 29.40527344 C12.89313738 27.51485755 11.07509484 25.64339486 9.25390625 23.7734375 C8.42555016 22.88451309 8.42555016 22.88451309 7.58045959 21.97763062 C5.83822235 20.1327078 5.83822235 20.1327078 3 18 C0.17649905 17.97513515 0.17649905 17.97513515 -2 19 C-2.4125 18.05125 -2.825 17.1025 -3.25 16.125 C-5.0040131 12.99283376 -5.70851757 12.13499394 -9 11 C-8.8125 9.125 -8.8125 9.125 -8 7 C-7.21625 6.690625 -6.4325 6.38125 -5.625 6.0625 C-2.30805664 4.71992769 -1.56677835 3.1335567 0 0 Z " fill="#e0aaff" transform="translate(57,44)"/>
<path d="M0 0 C3.73785618 0.70084803 5.39432914 1.80793366 8 4.5625 C9.42700061 7.95162645 9.08650587 9.31259416 7.875 12.8125 C6 15.5625 6 15.5625 1 16.5625 C1 29.7625 1 42.9625 1 56.5625 C-0.32 56.5625 -1.64 56.5625 -3 56.5625 C-3.0093457 55.37696533 -3.01869141 54.19143066 -3.02832031 52.9699707 C-3.06825998 48.56203955 -3.13402981 44.15480342 -3.20751953 39.74731445 C-3.2357061 37.84148095 -3.25693216 35.93553105 -3.27099609 34.02954102 C-3.29245783 31.28601594 -3.33912365 28.54388687 -3.390625 25.80078125 C-3.39185364 24.95163651 -3.39308228 24.10249176 -3.39434814 23.22761536 C-3.5235868 17.98133773 -4.26950664 15.50414476 -8 11.5625 C-8.5625 8.5625 -8.5625 8.5625 -8 5.5625 C-5.53959272 2.23371368 -4.10389613 0.76948052 0 0 Z " fill="#e0aaff" transform="translate(130,16.4375)"/>
<path d="M0 0 C1.875 0.1875 1.875 0.1875 4 1 C4.68132451 2.66072849 5.34742127 4.327767 6 6 C8.01735205 7.34410262 8.01735205 7.34410262 10 8 C10 9.32 10 10.64 10 12 C8.02 12.33 6.04 12.66 4 13 C3.67 14.65 3.34 16.3 3 18 C1.125 18.625 1.125 18.625 -1 19 C-1.66 18.34 -2.32 17.68 -3 17 C-11.91 25.91 -20.82 34.82 -30 44 C-30.99 43.67 -31.98 43.34 -33 43 C-32.13835307 38.43163037 -29.44739226 36.0656085 -26.21484375 32.921875 C-25.63916153 32.35043762 -25.06347931 31.77900024 -24.47035217 31.19024658 C-22.63299681 29.36966198 -20.78547868 27.55979432 -18.9375 25.75 C-17.68876862 24.51631747 -16.44071331 23.28195022 -15.19335938 22.046875 C-12.1366898 19.02325345 -9.07086474 16.00920079 -6 13 C-6.66 12.34 -7.32 11.68 -8 11 C-8 9.68 -8 8.36 -8 7 C-6.02 6.67 -4.04 6.34 -2 6 C-1.34 4.02 -0.68 2.04 0 0 Z " fill="#e0aaff" transform="translate(200,46)"/>
<path d="M0 0 C1.7956543 0.06298828 1.7956543 0.06298828 4 1 C5.30121352 3.34955654 6.30221226 5.50769545 7.26953125 7.9921875 C7.55479172 8.69393097 7.84005219 9.39567444 8.13395691 10.11868286 C8.73365231 11.60366745 9.32578209 13.09172642 9.91088867 14.58251953 C10.80913746 16.86645024 11.73348358 19.13843186 12.66210938 21.41015625 C13.24116431 22.85353341 13.81869046 24.29752503 14.39453125 25.7421875 C14.67150345 26.42352753 14.94847565 27.10486755 15.23384094 27.80685425 C17.11565659 32.65303024 17.11565659 32.65303024 16 36 C14.2043457 35.92114258 14.2043457 35.92114258 12 35 C10.69949426 32.73590216 9.70116497 30.66390569 8.73046875 28.26171875 C8.44520828 27.584543 8.15994781 26.90736725 7.86604309 26.20967102 C7.26637134 24.77605705 6.67423946 23.33926936 6.08911133 21.8996582 C5.19191558 19.6983339 4.26702359 17.51027156 3.33789062 15.32226562 C2.75872249 13.92778577 2.18119319 12.53262389 1.60546875 11.13671875 C1.32849655 10.48241379 1.05152435 9.82810883 0.76615906 9.15397644 C-0.58981766 5.77210611 -1.47490204 3.45773536 0 0 Z " fill="#e0aaff" transform="translate(95,43)"/>
<path d="M0 0 C0.99 0.33 1.98 0.66 3 1 C2.39877638 5.67895273 1.10284139 9.5869247 -0.72265625 13.9296875 C-0.98759384 14.56488312 -1.25253143 15.20007874 -1.52549744 15.85452271 C-2.36520443 17.86390834 -3.21368234 19.86944843 -4.0625 21.875 C-4.63665344 23.24454626 -5.21022706 24.61433575 -5.78320312 25.984375 C-7.18210845 29.32575557 -8.58889943 32.66374829 -10 36 C-11.32 35.67 -12.64 35.34 -14 35 C-13.41431739 30.59854381 -12.30583058 26.91178346 -10.56640625 22.83203125 C-10.08236328 21.69185547 -9.59832031 20.55167969 -9.09960938 19.37695312 C-8.59236328 18.20068359 -8.08511719 17.02441406 -7.5625 15.8125 C-7.05912109 14.62462891 -6.55574219 13.43675781 -6.03710938 12.21289062 C-2.28432074 3.42648111 -2.28432074 3.42648111 0 0 Z " fill="#e0aaff" transform="translate(162,44)"/>
<path d="M0 0 C6.85951621 0.63049758 12.68162414 2.97380935 19.00878906 5.55541992 C20.8848964 6.31651475 22.76981275 7.0520544 24.65625 7.78710938 C25.83960937 8.26599609 27.02296875 8.74488281 28.2421875 9.23828125 C29.3235498 9.67180908 30.40491211 10.10533691 31.51904297 10.55200195 C34 12 34 12 34.85986328 14.17260742 C34.9061084 14.77564697 34.95235352 15.37868652 35 16 C32.06226799 17.25724776 30.82760492 16.94581173 27.71606445 15.96777344 C26.42669299 15.44405012 25.14265161 14.90707599 23.86328125 14.359375 C23.18323532 14.07652649 22.50318939 13.79367798 21.80253601 13.5022583 C20.36885689 12.90243392 18.9375611 12.29688529 17.50854492 11.68603516 C15.3164098 10.7516665 13.11527293 9.84160292 10.91210938 8.93359375 C9.52022993 8.3477858 8.12893238 7.76059291 6.73828125 7.171875 C6.07790359 6.89986267 5.41752594 6.62785034 4.73713684 6.34759521 C3.12007245 5.64699282 1.55377497 4.83157942 0 4 C-0.33 3.01 -0.66 2.02 -1 1 C-0.67 0.67 -0.34 0.34 0 0 Z " fill="#e0aaff" transform="translate(47,90)"/>
<path d="M0 0 C-0.10839844 2.30541992 -0.10839844 2.30541992 -1 5 C-3.69628906 6.66918945 -3.69628906 6.66918945 -7.265625 8.11328125 C-7.89603699 8.37255905 -8.52644897 8.63183685 -9.17596436 8.89897156 C-10.51053744 9.44330436 -11.84901163 9.97815525 -13.19091797 10.50415039 C-15.23697192 11.30738547 -17.26896159 12.14001426 -19.30078125 12.97851562 C-30.13066916 17.35918476 -30.13066916 17.35918476 -35 17 C-34.92333984 15.20214844 -34.92333984 15.20214844 -34 13 C-31.72338818 11.71184164 -29.63880076 10.72436934 -27.2265625 9.765625 C-26.54701508 9.48273621 -25.86746765 9.19984741 -25.16732788 8.90838623 C-23.72939907 8.31312383 -22.28842077 7.72518289 -20.84472656 7.14404297 C-18.63441409 6.25379173 -16.43404102 5.34198055 -14.234375 4.42578125 C-12.83646621 3.85027659 -11.43804459 3.27601568 -10.0390625 2.703125 C-9.04986313 2.29540863 -9.04986313 2.29540863 -8.04067993 1.87945557 C-5.19133548 0.73748611 -3.10167691 0 0 0 Z " fill="#e0aaff" transform="translate(211,92)"/>
<path d="M0 0 C0.99 0.33 1.98 0.66 3 1 C2.44010697 4.99012371 1.24330232 7.5255052 -1.0625 10.8125 C-1.88427734 11.99779297 -1.88427734 11.99779297 -2.72265625 13.20703125 C-3.14417969 13.79871094 -3.56570312 14.39039062 -4 15 C-5.32 14.67 -6.64 14.34 -8 14 C-7.37606349 10.23880524 -5.65226285 7.81039958 -3.4375 4.75 C-2.79683594 3.85796875 -2.15617188 2.9659375 -1.49609375 2.046875 C-0.75552734 1.03367187 -0.75552734 1.03367187 0 0 Z " fill="#e0aaff" transform="translate(161,101)"/>
<path d="M0 0 C3.7381133 0.55287768 5.26300232 1.97778362 7.6875 4.8125 C8.28949219 5.49957031 8.89148438 6.18664062 9.51171875 6.89453125 C10.99364534 8.99101007 11.57730302 10.49199789 12 13 C10.68 13.33 9.36 13.66 8 14 C6.654869 12.42667714 5.32424946 10.84093859 4 9.25 C3.2575 8.36828125 2.515 7.4865625 1.75 6.578125 C0 4 0 4 0 0 Z " fill="#e0aaff" transform="translate(97,99)"/>
<path d="M0 0 C1.32 0 2.64 0 4 0 C3.44854729 5.23880078 2.57077907 9.97350697 1 15 C-0.32 15 -1.64 15 -3 15 C-2.22095672 4.44191344 -2.22095672 4.44191344 0 0 Z " fill="#e0aaff" transform="translate(140,92)"/>
<path d="M0 0 C1.32 0 2.64 0 4 0 C5.41634833 2.83269666 5.3463005 5.47466438 5.5625 8.625 C5.64628906 9.81351563 5.73007813 11.00203125 5.81640625 12.2265625 C5.87699219 13.14179687 5.93757813 14.05703125 6 15 C4.0625 15.5625 4.0625 15.5625 2 16 C0.00383446 14.00383446 0.59016573 10.18298037 0.4375 7.4375 C0.39431641 6.72658203 0.35113281 6.01566406 0.30664062 5.28320312 C0.20028223 3.52238088 0.09961154 1.7612168 0 0 Z " fill="#e0aaff" transform="translate(118,90)"/>
<path d="M0 0 C1.32 0 2.64 0 4 0 C3.43454163 3.95820859 2.19097652 6.6659053 0 10 C-1.32 9.67 -2.64 9.34 -4 9 C-3.47679633 5.23293356 -2.72611199 2.72611199 0 0 Z " fill="#e0aaff" transform="translate(149,100)"/>
<path d="M0 0 C2.40928735 0.96371494 3.76007009 1.65210163 5.25 3.8125 C6.11081611 6.32321365 6.14647297 8.36348649 6 11 C4.1875 10.875 4.1875 10.875 2 10 C-1.146948 5.11680482 -1.146948 5.11680482 -0.6875 1.625 C-0.460625 1.08875 -0.23375 0.5525 0 0 Z " fill="#e0aaff" transform="translate(109,98)"/>
<path d="M0 0 C1.65 0.33 3.3 0.66 5 1 C4.67 3.97 4.34 6.94 4 10 C3.01 10.33 2.02 10.66 1 11 C0.34 10.67 -0.32 10.34 -1 10 C-0.67 6.7 -0.34 3.4 0 0 Z " fill="#e0aaff" transform="translate(128,95)"/>
</svg>
