<?xml version="1.0" encoding="UTF-8"?>
<svg version="1.1" xmlns="http://www.w3.org/2000/svg" width="64" height="64">
<path d="M0 0 C0.66 0.33 1.32 0.66 2 1 C1.67 1.99 1.34 2.98 1 4 C0.360625 3.62875 -0.27875 3.2575 -0.9375 2.875 C-5.33603134 1.61827676 -8.74043981 2.49753695 -13 4 C-17.26522049 6.59622117 -19.26044396 9.33066536 -21 14 C-21.59499079 19.45408221 -20.6599796 23.21203672 -18 28 C-15.21037916 30.88632769 -12.14403021 33.81887368 -8.01171875 34.16796875 C-3.54865688 34.20547347 -0.06256295 34.09680669 4 32 C2.49235345 36.22141034 -0.21292869 37.80349864 -4 40 C-9.60314789 42.24125915 -15.59621067 41.38589865 -21.125 39.4375 C-26.90911105 36.92808567 -30.43243729 33.2984132 -33.125 27.6328125 C-35.03006142 21.90061878 -35.06686029 15.83973106 -32.9375 10.171875 C-29.45165993 3.84431749 -25.01413818 -0.46100709 -18.02734375 -2.60546875 C-11.30592017 -3.91349145 -6.04703912 -3.08522404 0 0 Z " fill="#e0aaff" transform="translate(45,13)"/>
<path d="M0 0 C0.99 0.33 1.98 0.66 3 1 C3 1.66 3 2.32 3 3 C3.99 3.33 4.98 3.66 6 4 C4.68 6.31 3.36 8.62 2 11 C1.34 11 0.68 11 0 11 C-0.99 8.69 -1.98 6.38 -3 4 C-2.01 2.68 -1.02 1.36 0 0 Z " fill="#e0aaff" transform="translate(37,27)"/>
<path d="M0 0 C0.99 0.99 1.98 1.98 3 3 C2.34 4.32 1.68 5.64 1 7 C0.01 6.01 -0.98 5.02 -2 4 C-1.34 2.68 -0.68 1.36 0 0 Z " fill="#e0aaff" transform="translate(50,34)"/>
<path d="M0 0 C0.99 0.33 1.98 0.66 3 1 C2.67 1.99 2.34 2.98 2 4 C1.01 3.67 0.02 3.34 -1 3 C-0.67 2.01 -0.34 1.02 0 0 Z " fill="#e0aaff" transform="translate(29,34)"/>
<path d="M0 0 C0.66 0 1.32 0 2 0 C2 0.99 2 1.98 2 3 C1.34 3 0.68 3 0 3 C0 2.01 0 1.02 0 0 Z " fill="#e0aaff" transform="translate(49,25)"/>
<path d="M0 0 C0.33 0.99 0.66 1.98 1 3 C0.34 3 -0.32 3 -1 3 C-0.67 2.01 -0.34 1.02 0 0 Z " fill="#e0aaff" transform="translate(40,41)"/>
</svg>
