<?xml version="1.0" standalone="no"?>
<!DOCTYPE svg PUBLIC "-//W3C//DTD SVG 20010904//EN"
 "http://www.w3.org/TR/2001/REC-SVG-20010904/DTD/svg10.dtd">
<svg version="1.0" xmlns="http://www.w3.org/2000/svg"
 width="128.000000pt" height="128.000000pt" viewBox="0 0 128.000000 128.000000"
 preserveAspectRatio="xMidYMid meet">

<g transform="translate(0.000000,128.000000) scale(0.100000,-0.100000)"
fill="#000000" stroke="none">
<path d="M621 983 c-7 -115 -15 -223 -18 -241 l-5 -32 -44 37 c-23 21 -71 63
-106 93 l-63 55 65 -73 c36 -40 77 -88 93 -107 l27 -33 -32 -5 c-18 -3 -126
-11 -240 -18 -115 -7 -208 -16 -208 -19 0 -3 93 -12 208 -19 114 -7 222 -15
239 -18 l33 -5 -68 -73 c-37 -40 -119 -129 -182 -197 l-115 -123 87 80 c48 44
136 126 196 183 l110 102 5 -32 c3 -18 11 -126 18 -240 7 -115 16 -208 19
-208 3 0 12 93 19 208 7 114 15 222 18 240 l5 32 33 -27 c19 -16 67 -57 107
-93 l73 -65 -65 73 c-36 40 -77 88 -93 107 l-27 33 42 5 c24 4 134 12 246 18
111 7 202 16 202 19 0 3 -91 12 -202 19 -112 6 -222 14 -245 18 l-43 5 68 73
c37 40 119 129 182 197 l115 123 -123 -115 c-68 -63 -157 -145 -197 -182 l-73
-68 -5 33 c-3 17 -11 125 -18 240 -7 114 -16 207 -19 207 -3 0 -12 -93 -19
-207z"/>
</g>
</svg>
