<?xml version="1.0" standalone="no"?>
<!DOCTYPE svg PUBLIC "-//W3C//DTD SVG 20010904//EN"
 "http://www.w3.org/TR/2001/REC-SVG-20010904/DTD/svg10.dtd">
<svg version="1.0" xmlns="http://www.w3.org/2000/svg"
 width="128.000000pt" height="128.000000pt" viewBox="0 0 128.000000 128.000000"
 preserveAspectRatio="xMidYMid meet">

<g transform="translate(0.000000,128.000000) scale(0.100000,-0.100000)"
fill="#e7d6c8" stroke="none">
<path d="M622 1178 c-19 -31 -22 -45 -16 -85 4 -36 0 -67 -15 -116 -11 -38
-20 -73 -18 -79 1 -6 -3 -12 -9 -15 -13 -5 -46 81 -38 101 5 13 -35 71 -43 63
-2 -3 1 -42 8 -86 6 -45 9 -85 5 -88 -3 -4 -28 16 -54 44 -33 37 -59 54 -90
62 -23 7 -58 26 -77 42 -31 28 -35 29 -35 12 0 -41 23 -83 56 -104 19 -11 44
-40 55 -63 12 -22 28 -49 37 -58 8 -10 11 -18 6 -19 -5 -1 1 -4 13 -7 17 -5
20 -11 13 -22 -8 -12 -17 -11 -62 13 l-53 27 40 -5 c37 -4 37 -3 -10 9 -27 8
-61 15 -74 15 -24 1 -24 1 -6 -19 10 -12 24 -19 29 -17 6 2 37 -8 68 -22 44
-20 56 -29 49 -40 -7 -12 -16 -9 -48 16 -44 35 -63 46 -63 39 0 -3 20 -19 45
-37 25 -18 45 -37 45 -42 0 -6 -24 -7 -60 -3 -50 6 -68 3 -107 -15 -27 -12
-70 -27 -97 -33 l-50 -12 42 -21 c34 -16 50 -19 84 -12 30 5 57 4 88 -6 25 -7
54 -15 65 -17 15 -2 3 -14 -48 -46 -37 -23 -67 -44 -67 -47 0 -3 14 -5 31 -5
16 0 28 4 25 9 -3 5 11 8 31 6 25 -1 27 -1 8 2 -29 5 -29 5 20 24 28 10 56 17
63 14 20 -7 14 -25 -10 -26 -22 -1 -22 -1 2 -8 23 -7 23 -8 -32 -59 -38 -37
-59 -66 -68 -95 -6 -23 -23 -57 -36 -74 -25 -32 -25 -33 -4 -33 14 0 19 4 14
12 -5 8 -2 9 9 5 25 -10 44 1 68 39 12 20 41 45 69 59 27 14 52 30 56 36 4 8
9 7 15 -2 6 -10 9 -8 9 9 0 13 6 22 15 22 20 0 19 -9 -5 -65 -11 -26 -17 -52
-13 -57 3 -7 1 -8 -6 -4 -7 5 -10 22 -7 44 3 23 0 16 -9 -18 -21 -81 -15 -91
25 -40 19 25 27 39 17 31 -22 -17 -21 -13 3 43 12 28 26 46 36 46 10 0 14 -5
10 -15 -3 -8 0 -14 7 -12 9 1 11 -16 10 -61 -2 -49 2 -73 19 -105 12 -23 27
-64 33 -91 l11 -50 21 42 c17 34 19 50 12 87 -6 32 -4 56 7 87 8 24 16 60 17
81 2 53 22 46 42 -14 9 -28 19 -48 22 -45 3 3 -2 26 -11 52 -8 25 -13 50 -10
55 11 18 24 8 25 -18 2 -24 2 -25 6 -5 6 32 17 28 58 -23 27 -32 52 -50 93
-65 32 -12 67 -31 79 -42 30 -28 39 -17 24 31 -8 28 -22 46 -47 61 -19 12 -44
41 -55 64 -12 22 -28 48 -35 57 -13 14 -6 14 66 -2 44 -9 80 -13 80 -9 0 14
-42 40 -53 33 -6 -3 -7 -2 -4 4 4 6 -15 25 -41 43 l-47 32 40 -36 c22 -19 36
-35 32 -36 -18 0 -87 42 -87 54 0 22 45 35 102 29 44 -4 62 -1 99 18 24 12 64
25 89 28 l44 6 -29 20 c-23 15 -48 20 -100 21 -57 1 -195 29 -160 33 6 1 21
11 35 22 28 23 9 16 -32 -13 -31 -22 -48 -23 -48 -4 0 8 21 22 51 31 28 9 48
19 46 21 -2 2 -24 -3 -47 -11 -45 -16 -70 -14 -70 5 0 5 17 11 38 12 36 1 36
1 5 5 -18 2 -33 8 -33 12 0 4 22 26 49 49 37 31 51 52 61 88 8 26 27 63 44 82
l31 35 -40 -7 c-30 -5 -51 -19 -85 -55 -37 -39 -108 -91 -125 -91 -2 0 -6 8
-8 18 -2 9 -3 4 -1 -11 2 -15 0 -25 -5 -22 -5 3 -11 -1 -13 -10 -2 -9 -8 -11
-16 -6 -10 6 -9 17 7 54 11 26 18 55 16 65 -3 9 1 4 8 -12 l14 -28 10 51 c6
28 7 51 4 51 -4 0 -24 -24 -46 -52 -21 -29 -29 -44 -17 -34 27 24 27 20 2 -37
-33 -75 -73 -34 -63 65 4 44 1 62 -18 99 -12 24 -25 64 -28 89 l-6 45 -23 -37z
m18 -29 c0 -6 12 -35 26 -64 23 -49 25 -62 18 -125 -5 -49 -11 -70 -20 -70
-12 0 -17 16 -17 55 0 6 3 30 6 55 5 37 4 40 -4 20 -6 -14 -11 -49 -12 -77 -1
-45 -4 -53 -20 -53 -18 0 -19 5 -12 63 4 34 8 91 9 127 2 36 3 71 4 78 2 15
22 6 22 -9z m360 -142 c0 -7 -4 -17 -9 -22 -5 -6 -16 -33 -25 -61 -13 -40 -26
-58 -57 -80 -22 -15 -45 -36 -51 -47 -10 -20 -11 -20 -21 -1 -6 10 -19 26 -29
34 -18 14 -18 16 7 43 14 15 43 36 64 47 22 11 49 35 60 54 27 42 61 61 61 33z
m-643 -42 c43 -9 144 -121 119 -131 -20 -7 -48 16 -77 62 -18 30 -106 90 -116
80 -3 -3 13 -14 35 -25 22 -11 55 -40 73 -63 19 -24 42 -49 52 -56 14 -11 15
-17 7 -28 -18 -20 -51 6 -83 65 -15 27 -38 56 -51 64 -58 38 -73 81 -18 53 15
-7 41 -17 59 -21z m175 -97 c-16 -16 -19 -11 -26 57 l-6 60 22 -53 c16 -40 18
-56 10 -64z m221 -41 c86 -51 128 -169 93 -261 -17 -44 -94 -126 -118 -126 -7
0 1 8 17 19 121 75 140 228 41 327 -48 49 -108 69 -175 60 -62 -8 -101 -34
-138 -90 -29 -42 -33 -57 -33 -113 0 -79 25 -132 82 -173 22 -17 35 -30 28
-30 -7 0 -34 21 -60 48 -87 86 -89 207 -6 298 72 79 177 95 269 41z m-364
-153 c2 -2 1 -10 -3 -19 -5 -14 -17 -15 -83 -10 -50 4 -87 3 -103 -4 -25 -11
-25 -11 4 -6 16 4 64 3 107 -1 60 -5 79 -10 79 -21 0 -13 -11 -14 -62 -8 -35
4 -95 6 -135 5 -39 0 -74 3 -77 8 -3 4 9 7 27 5 29 -2 30 -2 7 6 -14 5 -18 10
-10 10 8 1 37 12 64 26 43 21 59 23 115 18 36 -3 68 -7 70 -9z m693 -7 c85 -2
106 -11 62 -27 -16 -5 -42 -18 -59 -28 -22 -12 -52 -17 -112 -17 -75 0 -83 2
-83 19 0 17 6 18 78 14 42 -3 86 -2 97 2 15 6 12 8 -15 8 -128 0 -160 5 -160
25 0 17 5 18 58 12 31 -3 91 -7 134 -8z m-684 -112 c-3 -3 -30 -15 -59 -26
-58 -22 -57 -17 6 24 25 17 43 23 49 17 5 -5 7 -12 4 -15z m530 -50 c56 -23
47 -31 -17 -15 -33 8 -51 17 -51 27 0 8 6 13 13 10 6 -3 31 -13 55 -22z m-478
-38 c0 -7 -25 -36 -57 -66 -52 -48 -53 -50 -13 -20 25 18 54 44 65 57 18 21
23 22 33 9 16 -18 -15 -60 -61 -83 -18 -8 -50 -36 -73 -61 -45 -50 -75 -53
-50 -5 7 15 16 41 20 57 4 19 28 49 64 81 55 50 72 57 72 31z m463 -56 c15
-26 45 -61 67 -76 22 -16 39 -32 38 -37 -4 -12 -9 -12 -73 8 -45 14 -65 29
-106 76 -43 49 -48 59 -33 65 17 6 46 -19 84 -73 17 -24 99 -78 107 -70 3 2
-12 14 -34 25 -51 27 -146 134 -131 149 17 17 51 -12 81 -67z m-206 23 c-3 -3
-12 -4 -19 -1 -8 3 -5 6 6 6 11 1 17 -2 13 -5z m-49 -11 c-10 -2 -26 -2 -35 0
-10 3 -2 5 17 5 19 0 27 -2 18 -5z m-24 -50 c4 -9 4 -47 0 -84 -4 -44 -2 -73
5 -85 11 -17 11 -17 6 4 -4 12 -3 58 1 102 5 60 10 80 21 80 12 0 14 -11 8
-62 -3 -35 -6 -94 -5 -131 0 -38 -4 -76 -9 -85 -8 -12 -9 -6 -6 23 4 32 3 35
-4 15 -5 -14 -9 -19 -10 -12 -1 7 -12 37 -25 65 -21 45 -24 62 -19 120 6 66
22 89 37 50z"/>
<path d="M956 967 c-10 -18 -43 -56 -74 -85 l-57 -53 50 36 c44 33 113 120
103 131 -2 2 -12 -11 -22 -29z"/>
<path d="M311 304 c-12 -19 -16 -32 -11 -29 11 7 43 65 36 65 -2 0 -13 -16
-25 -36z"/>
<path d="M530 975 c0 -5 9 -21 20 -35 11 -14 20 -20 20 -15 0 6 -9 21 -20 35
-11 14 -20 21 -20 15z"/>
<path d="M719 913 c-13 -16 -12 -17 4 -4 9 7 17 15 17 17 0 8 -8 3 -21 -13z"/>
<path d="M975 791 l-40 -6 33 -8 c23 -4 31 -11 26 -19 -4 -6 7 -2 24 11 47 33
43 35 -43 22z"/>
<path d="M539 343 c-13 -16 -12 -17 4 -4 9 7 17 15 17 17 0 8 -8 3 -21 -13z"/>
<path d="M710 355 c0 -3 19 -35 43 -71 46 -71 54 -66 38 26 -6 39 -9 46 -10
23 -2 -46 -16 -48 -41 -8 -20 32 -30 42 -30 30z"/>
</g>
</svg>
